<?xml version="1.0" standalone="no"?><!DOCTYPE svg PUBLIC "-//W3C//DTD SVG 1.1//EN" "http://www.w3.org/Graphics/SVG/1.1/DTD/svg11.dtd"><svg t="1729417788821" class="icon" viewBox="0 0 1041 1024" version="1.1" xmlns="http://www.w3.org/2000/svg" p-id="1666" xmlns:xlink="http://www.w3.org/1999/xlink" width="203.3203125" height="200"><path d="M0 122.877998m125.155834 0l650.810335 0q125.155834 0 125.155833 125.155833l0 650.810335q0 125.155834-125.155833 125.155834l-650.810335 0q-125.155834 0-125.155834-125.155834l0-650.810335q0-125.155834 125.155834-125.155833Z" fill="#D73417" p-id="1667"></path><path d="M273.352856 377.282261a41.864626 41.864626 0 0 1-41.902173 41.814564 41.877142 41.877142 0 0 1-41.952235-41.814564 41.877142 41.877142 0 0 1 41.952235-41.814564 41.839595 41.839595 0 0 1 41.902173 41.814564z m435.279474 0a41.889658 41.889658 0 0 1-41.914688 41.814564 41.877142 41.877142 0 0 1-41.93972-41.814564 41.877142 41.877142 0 0 1 41.93972-41.814564 41.839595 41.839595 0 0 1 41.914688 41.814564z" fill="#A52424" p-id="1668"></path><path d="M686.95534 403.289643c-31.364052 287.48295-440.273192 287.48295-475.692293 0.037547-2.841037-19.912293-6.082574-42.540468 17.171381-45.056101 23.241438-2.528148 21.526803 21.764599 23.917279 38.247623 20.963602 231.525777 355.442568 247.207803 395.041874 0.675842 2.390476-16.52057-1.251558-39.061136 23.253954-39.061136 23.291501-0.050062 19.148843 25.231416 16.307805 45.156225z" fill="#FFFFFF" p-id="1669"></path></svg>