<?xml version="1.0" standalone="no"?><!DOCTYPE svg PUBLIC "-//W3C//DTD SVG 1.1//EN" "http://www.w3.org/Graphics/SVG/1.1/DTD/svg11.dtd"><svg t="1729417859155" class="icon" viewBox="0 0 1024 1024" version="1.1" xmlns="http://www.w3.org/2000/svg" p-id="2911" xmlns:xlink="http://www.w3.org/1999/xlink" width="200" height="200"><path d="M0 0h1024v1024H0z" fill="#F55F5F" p-id="2912"></path><path d="M739.2256 534.4256A165.3248 165.3248 0 0 0 569.856 768H277.2992a42.6752 42.6752 0 0 1-42.624-44.3904l19.968-490.6752A42.6752 42.6752 0 0 1 297.3184 192H684.288c22.8864 0 41.7024 18.0736 42.624 40.9344l12.288 301.4912z m-360.4224-193.1008a112 112 0 1 0 224 0h-32a80 80 0 1 1-160 0h-32z m341.1968 501.3504a144 144 0 1 1 0-288 144 144 0 0 1 0 288z m-49.024-110.6176l24.2688-77.9776 16.0256 126.0544c1.408 11.1616 15.6416 12.5952 18.944 1.92l22.2208-72.1664 10.8288 23.5008a9.728 9.728 0 0 0 8.7296 5.888H832v-21.3248h-53.9648l-18.6368-40.5248c-3.8912-8.4736-15.232-7.6032-18.0224 1.3824l-16.4608 53.4528-15.9488-125.7216c-1.4336-11.136-15.616-12.6208-18.944-1.9712l-35.328 113.3824h-57.344v21.3248h64.3584a9.8816 9.8816 0 0 0 9.2672-7.2192z" fill="#FFFFFF" p-id="2913"></path></svg>